<svg width="24" height="24" viewBox="0 0 24 24" fill="none" xmlns="http://www.w3.org/2000/svg">
<path fill-rule="evenodd" clip-rule="evenodd" d="M12 1C9.0124 1 8.6384 1.01247 7.46507 1.066C6.29393 1.11953 5.49387 1.3058 4.79427 1.57787C4.06093 1.8536 3.3958 2.28627 2.8458 2.84653C2.28643 3.3959 1.8535 4.06056 1.57713 4.79427C1.30653 5.49387 1.11953 6.29467 1.066 7.4658C1.0132 8.6384 1 9.01167 1 12C1 14.9883 1.01247 15.3616 1.066 16.5349C1.11953 17.7061 1.3058 18.5061 1.57787 19.2057C1.8536 19.9391 2.28627 20.6042 2.84653 21.1542C3.39591 21.7136 4.06057 22.1465 4.79427 22.4229C5.49387 22.6942 6.29393 22.8805 7.46507 22.934C8.6384 22.9875 9.0124 23 12 23C14.9876 23 15.3616 22.9875 16.5349 22.934C17.7061 22.8805 18.5061 22.6942 19.2057 22.4221C19.9391 22.1464 20.6042 21.7137 21.1542 21.1535C21.7136 20.6041 22.1465 19.9394 22.4229 19.2057C22.6942 18.5061 22.8805 17.7061 22.934 16.5349C22.9875 15.3616 23 14.9876 23 12C23 9.0124 22.9875 8.6384 22.934 7.46507C22.8805 6.29393 22.6942 5.49387 22.4221 4.79427C22.146 4.06025 21.713 3.3953 21.1535 2.8458C20.6041 2.28643 19.9394 1.8535 19.2057 1.57713C18.5061 1.30653 17.7053 1.11953 16.5342 1.066C15.3616 1.0132 14.9883 1 12 1ZM12 2.9822C14.937 2.9822 15.2853 2.9932 16.4455 3.046C17.5176 3.09513 18.0999 3.27333 18.4878 3.42513C19.0011 3.62387 19.3678 3.86293 19.7528 4.2472C20.1378 4.6322 20.3761 4.99887 20.5749 5.5122C20.7259 5.90013 20.9049 6.4824 20.954 7.55453C21.0068 8.71467 21.0178 9.063 21.0178 12C21.0178 14.937 21.0068 15.2853 20.954 16.4455C20.9049 17.5176 20.7267 18.0999 20.5749 18.4878C20.3988 18.9656 20.1179 19.3979 19.7528 19.7528C19.3979 20.118 18.9656 20.3989 18.4878 20.5749C18.0999 20.7259 17.5176 20.9049 16.4455 20.954C15.2853 21.0068 14.9377 21.0178 12 21.0178C9.06227 21.0178 8.71467 21.0068 7.55453 20.954C6.4824 20.9049 5.90013 20.7267 5.5122 20.5749C5.0344 20.3988 4.60214 20.1179 4.2472 19.7528C3.88213 19.3978 3.60123 18.9656 3.42513 18.4878C3.27407 18.0999 3.09513 17.5176 3.046 16.4455C2.9932 15.2853 2.9822 14.937 2.9822 12C2.9822 9.063 2.9932 8.71467 3.046 7.55453C3.09513 6.4824 3.27333 5.90013 3.42513 5.5122C3.62387 4.99887 3.86293 4.6322 4.2472 4.2472C4.60209 3.88203 5.03437 3.60112 5.5122 3.42513C5.90013 3.27407 6.4824 3.09513 7.55453 3.046C8.71467 2.9932 9.063 2.9822 12 2.9822Z" fill="black"/>
<path fill-rule="evenodd" clip-rule="evenodd" d="M12 15.6702C11.518 15.6702 11.0408 15.5753 10.5955 15.3908C10.1501 15.2064 9.74551 14.936 9.40469 14.5952C9.06387 14.2544 8.79351 13.8497 8.60906 13.4044C8.42461 12.9591 8.32967 12.4819 8.32967 11.9999C8.32967 11.5179 8.42461 11.0406 8.60906 10.5953C8.79351 10.15 9.06387 9.74541 9.40469 9.40459C9.74551 9.06377 10.1501 8.79341 10.5955 8.60896C11.0408 8.42451 11.518 8.32957 12 8.32957C12.9735 8.32957 13.907 8.71627 14.5953 9.40459C15.2837 10.0929 15.6704 11.0264 15.6704 11.9999C15.6704 12.9733 15.2837 13.9069 14.5953 14.5952C13.907 15.2835 12.9735 15.6702 12 15.6702ZM12 6.34591C10.5005 6.34591 9.06236 6.94159 8.00203 8.00192C6.9417 9.06226 6.34601 10.5003 6.34601 11.9999C6.34601 13.4994 6.9417 14.9375 8.00203 15.9978C9.06236 17.0582 10.5005 17.6539 12 17.6539C13.4996 17.6539 14.9377 17.0582 15.998 15.9978C17.0583 14.9375 17.654 13.4994 17.654 11.9999C17.654 10.5003 17.0583 9.06226 15.998 8.00192C14.9377 6.94159 13.4996 6.34591 12 6.34591ZM19.2989 6.24324C19.2989 6.5977 19.1581 6.93765 18.9074 7.18829C18.6568 7.43893 18.3169 7.57974 17.9624 7.57974C17.6079 7.57974 17.268 7.43893 17.0173 7.18829C16.7667 6.93765 16.6259 6.5977 16.6259 6.24324C16.6259 5.88878 16.7667 5.54883 17.0173 5.29819C17.268 5.04755 17.6079 4.90674 17.9624 4.90674C18.3169 4.90674 18.6568 5.04755 18.9074 5.29819C19.1581 5.54883 19.2989 5.88878 19.2989 6.24324Z" fill="black"/>
</svg>
